<svg width="16" height="16" viewBox="0 0 16 16" fill="none" xmlns="http://www.w3.org/2000/svg">
<path d="M15.9946 4.06582C15.9946 6.69018 15.9946 9.31414 15.9946 11.9385C15.9684 12.102 15.9512 12.2675 15.9148 12.4286C15.5092 14.2221 14.4217 15.3722 12.6509 15.8682C12.4181 15.9335 12.1733 15.957 11.9343 16C9.3107 16 6.68713 16 4.06316 16C3.72832 15.9308 3.38292 15.8936 3.0606 15.7872C1.20254 15.1739 0.0126082 13.5439 0.00517597 11.595C-0.00421209 9.20031 0.00165545 6.80596 0.0036113 4.41162C0.00400247 3.65353 0.169858 2.93026 0.553204 2.27544C1.42316 0.788609 2.73162 0.0191794 4.45512 0.00822669C6.81778 -0.00663773 9.18044 0.00196799 11.5431 0.00822669C11.838 0.00900903 12.14 0.0254381 12.4268 0.0891987C14.2183 0.4878 15.3672 1.57838 15.8624 3.34685C15.9281 3.58077 15.9516 3.82604 15.9946 4.06582ZM15.0523 8.00177C15.0523 6.83569 15.0574 5.66962 15.0484 4.50354C15.0464 4.22425 15.0272 3.93869 14.9654 3.66722C14.5954 2.0337 13.2392 0.9529 11.5541 0.948597C9.18591 0.942338 6.81778 0.945859 4.44925 0.947815C3.93955 0.948206 3.4416 1.02957 2.98041 1.25488C1.64065 1.91009 0.95689 2.9948 0.948285 4.48046C0.934203 6.82826 0.942026 9.17606 0.947894 11.5239C0.948676 11.7926 0.969799 12.0676 1.02847 12.3293C1.39656 13.9636 2.74962 15.0495 4.43399 15.0549C6.80722 15.0628 9.18083 15.0628 11.5544 15.0545C12.7463 15.0502 13.7086 14.5652 14.4135 13.5974C14.8606 12.9837 15.0511 12.2851 15.0515 11.5309C15.0527 10.355 15.0523 9.1784 15.0523 8.00177Z" fill="#2400FF"/>
<path d="M8.00219 12.386C5.59025 12.393 3.6078 10.4098 3.61562 7.99786C3.62345 5.57848 5.57695 3.62498 7.99515 3.61794C10.4071 3.6109 12.3899 5.59412 12.3817 8.00607C12.3735 10.4258 10.4208 12.379 8.00219 12.386ZM8.00493 11.4413C9.90054 11.4362 11.4359 9.89894 11.4374 8.00373C11.439 6.10421 9.89076 4.55753 7.99281 4.563C6.09642 4.56848 4.56186 6.10538 4.5603 8.0006C4.55873 9.90011 6.10659 11.4464 8.00493 11.4413Z" fill="#2400FF"/>
<path d="M13.975 3.37541C13.9554 4.12841 13.3542 4.69952 12.6247 4.68074C11.8333 4.6604 11.3068 4.03844 11.3189 3.33082C11.3314 2.58564 11.9515 2.00201 12.6692 2.0247C13.4129 2.04817 13.9988 2.65449 13.975 3.37541ZM13.0307 3.35585C13.0323 3.14345 12.8586 2.96859 12.6462 2.96899C12.4365 2.96938 12.2573 3.14971 12.2605 3.35742C12.2632 3.55652 12.4408 3.73529 12.6399 3.73959C12.848 3.74389 13.0295 3.56591 13.0307 3.35585Z" fill="#2400FF"/>
</svg>
