<svg width="31" height="110" viewBox="0 0 31 110" fill="none" xmlns="http://www.w3.org/2000/svg">
<path d="M21.356 78.676L21.356 78.388L25.721 77.614L25.721 77.578L21.356 76.498L21.356 76.093L25.721 75.013L25.721 74.977L21.356 74.203L21.356 73.924L26 74.761L26 75.211L21.671 76.273L21.671 76.309L26 77.389L26 77.839L21.356 78.676ZM26.108 70.9035C26.108 71.5155 25.901 71.9925 25.487 72.3345C25.073 72.6765 24.47 72.8475 23.678 72.8475C22.886 72.8475 22.283 72.6765 21.869 72.3345C21.455 71.9925 21.248 71.5155 21.248 70.9035C21.248 70.2915 21.455 69.8145 21.869 69.4725C22.283 69.1305 22.886 68.9595 23.678 68.9595C24.47 68.9595 25.073 69.1305 25.487 69.4725C25.901 69.8145 26.108 70.2915 26.108 70.9035ZM25.829 70.9035C25.829 70.3935 25.661 70.0005 25.325 69.7245C24.989 69.4425 24.521 69.3015 23.921 69.3015L23.435 69.3015C22.835 69.3015 22.367 69.4425 22.031 69.7245C21.695 70.0005 21.527 70.3935 21.527 70.9035C21.527 71.4135 21.695 71.8095 22.031 72.0915C22.367 72.3675 22.835 72.5055 23.435 72.5055L23.921 72.5055C24.521 72.5055 24.989 72.3675 25.325 72.0915C25.661 71.8095 25.829 71.4135 25.829 70.9035ZM26 67.127L21.356 67.127L21.356 66.812L22.04 66.812L22.04 66.785C21.938 66.743 21.839 66.686 21.743 66.614C21.647 66.536 21.563 66.44 21.491 66.326C21.419 66.212 21.362 66.077 21.32 65.921C21.272 65.765 21.248 65.585 21.248 65.381C21.248 64.871 21.398 64.481 21.698 64.211C21.992 63.941 22.421 63.806 22.985 63.806L26 63.806L26 64.121L23.039 64.121C22.511 64.121 22.127 64.235 21.887 64.463C21.647 64.691 21.527 65.021 21.527 65.453C21.527 65.627 21.551 65.798 21.599 65.966C21.647 66.128 21.719 66.272 21.815 66.398C21.911 66.524 22.031 66.626 22.175 66.704C22.319 66.776 22.487 66.812 22.679 66.812L26 66.812L26 67.127ZM25.289 58.7875L25.289 58.8145C25.505 58.9225 25.697 59.0965 25.865 59.3365C26.027 59.5765 26.108 59.8855 26.108 60.2635C26.108 60.8515 25.904 61.3105 25.496 61.6405C25.088 61.9705 24.482 62.1355 23.678 62.1355C22.874 62.1355 22.268 61.9705 21.86 61.6405C21.452 61.3105 21.248 60.8515 21.248 60.2635C21.248 59.8855 21.332 59.5765 21.5 59.3365C21.662 59.0965 21.851 58.9225 22.067 58.8145L22.067 58.7875L19.34 58.7875L19.34 58.4725L26 58.4725L26 58.7875L25.289 58.7875ZM25.829 60.1915C25.829 60.0055 25.802 59.8285 25.748 59.6605C25.694 59.4925 25.616 59.3455 25.514 59.2195C25.412 59.0875 25.289 58.9825 25.145 58.9045C25.001 58.8265 24.842 58.7875 24.668 58.7875L22.688 58.7875C22.514 58.7875 22.355 58.8265 22.211 58.9045C22.067 58.9825 21.944 59.0875 21.842 59.2195C21.74 59.3455 21.662 59.4925 21.608 59.6605C21.554 59.8285 21.527 60.0055 21.527 60.1915C21.527 60.7075 21.698 61.1035 22.04 61.3795C22.376 61.6555 22.835 61.7935 23.417 61.7935L23.939 61.7935C24.521 61.7935 24.983 61.6555 25.325 61.3795C25.661 61.1035 25.829 60.7075 25.829 60.1915ZM26.108 54.6511C26.108 55.2751 25.901 55.7641 25.487 56.1181C25.073 56.4661 24.47 56.6401 23.678 56.6401C22.886 56.6401 22.283 56.4661 21.869 56.1181C21.455 55.7701 21.248 55.2961 21.248 54.6961C21.248 54.3841 21.305 54.1081 21.419 53.8681C21.527 53.6281 21.683 53.4271 21.887 53.2651C22.091 53.1031 22.337 52.9801 22.625 52.8961C22.913 52.8121 23.231 52.7701 23.579 52.7701L23.705 52.7701L23.705 56.2981L23.939 56.2981C24.521 56.2981 24.983 56.1571 25.325 55.8751C25.661 55.5871 25.829 55.1791 25.829 54.6511C25.829 54.2791 25.742 53.9641 25.568 53.7061C25.394 53.4481 25.133 53.2501 24.785 53.1121L24.92 52.8601C25.28 52.9981 25.568 53.2201 25.784 53.5261C26 53.8261 26.108 54.2011 26.108 54.6511ZM21.518 54.6961C21.518 55.2061 21.689 55.6021 22.031 55.8841C22.373 56.1601 22.835 56.2981 23.417 56.2981L23.453 56.2981L23.453 53.1031L23.408 53.1031C22.826 53.1031 22.367 53.2411 22.031 53.5171C21.689 53.7931 21.518 54.1861 21.518 54.6961ZM25.721 51.3066L25.721 49.7586L21.635 49.7586L21.635 51.3066L21.356 51.3066L21.356 49.4436L22.319 49.4436L22.319 49.4166C22.187 49.3626 22.064 49.2996 21.95 49.2276C21.83 49.1496 21.728 49.0536 21.644 48.9396C21.554 48.8196 21.485 48.6786 21.437 48.5166C21.383 48.3546 21.356 48.1656 21.356 47.9496L21.356 47.0046L21.653 47.0046L21.653 48.0306C21.653 48.2286 21.686 48.4146 21.752 48.5886C21.812 48.7566 21.902 48.9036 22.022 49.0296C22.142 49.1556 22.295 49.2576 22.481 49.3356C22.661 49.4076 22.868 49.4436 23.102 49.4436L25.721 49.4436L25.721 47.4636L26 47.4636L26 51.3066L25.721 51.3066ZM25.721 45.8021L25.721 44.1011L21.635 44.1011L21.635 45.8921L21.356 45.8921L21.356 44.1011L19.79 44.1011C19.49 44.1011 19.34 43.9541 19.34 43.6601L19.34 41.7971L19.619 41.7971L19.619 43.7951L21.356 43.7951L21.356 41.7971L21.635 41.7971L21.635 43.7951L25.721 43.7951L25.721 42.0041L26 42.0041L26 45.8021L25.721 45.8021ZM25.316 37.2196L25.316 37.2466C25.52 37.3306 25.703 37.4866 25.865 37.7146C26.027 37.9366 26.108 38.2486 26.108 38.6506C26.108 39.1606 25.961 39.5506 25.667 39.8206C25.367 40.0906 24.935 40.2256 24.371 40.2256L21.356 40.2256L21.356 39.9106L24.317 39.9106C24.845 39.9106 25.229 39.7966 25.469 39.5686C25.709 39.3406 25.829 39.0106 25.829 38.5786C25.829 38.4046 25.805 38.2366 25.757 38.0746C25.709 37.9066 25.637 37.7596 25.541 37.6336C25.445 37.5076 25.325 37.4086 25.181 37.3366C25.037 37.2586 24.869 37.2196 24.677 37.2196L21.356 37.2196L21.356 36.9046L26 36.9046L26 37.2196L25.316 37.2196ZM25.721 35.0361L25.721 33.2811L19.619 33.2811L19.619 35.0361L19.34 35.0361L19.34 32.9661L25.721 32.9661L25.721 31.2201L26 31.2201L26 35.0361L25.721 35.0361ZM24.29 27.8036L22.094 27.9026L19.718 27.9026L19.718 27.5606L22.094 27.5606L24.29 27.6596L24.29 27.8036ZM26.054 27.7316C26.054 27.8696 26.027 27.9686 25.973 28.0286C25.913 28.0886 25.835 28.1186 25.739 28.1186L25.649 28.1186C25.553 28.1186 25.478 28.0886 25.424 28.0286C25.364 27.9686 25.334 27.8696 25.334 27.7316C25.334 27.5936 25.364 27.4946 25.424 27.4346C25.478 27.3746 25.553 27.3446 25.649 27.3446L25.739 27.3446C25.835 27.3446 25.913 27.3746 25.973 27.4346C26.027 27.4946 26.054 27.5936 26.054 27.7316Z" fill="#2400FF"/>
<path d="M9 108.74L2.718 108.74L2.718 108.416L8.703 108.416L8.703 105.23L9 105.23L9 108.74ZM9.108 101.841C9.108 102.465 8.901 102.954 8.487 103.308C8.073 103.656 7.47 103.83 6.678 103.83C5.886 103.83 5.283 103.656 4.869 103.308C4.455 102.96 4.248 102.486 4.248 101.886C4.248 101.574 4.305 101.298 4.419 101.058C4.527 100.818 4.683 100.617 4.887 100.455C5.091 100.293 5.337 100.17 5.625 100.086C5.913 100.002 6.231 99.9595 6.579 99.9595L6.705 99.9595L6.705 103.488L6.939 103.488C7.521 103.488 7.983 103.347 8.325 103.065C8.661 102.777 8.829 102.369 8.829 101.841C8.829 101.469 8.742 101.154 8.568 100.896C8.394 100.638 8.133 100.44 7.785 100.302L7.92 100.05C8.28 100.188 8.568 100.41 8.784 100.716C9 101.016 9.108 101.391 9.108 101.841ZM4.518 101.886C4.518 102.396 4.689 102.792 5.031 103.074C5.373 103.35 5.835 103.488 6.417 103.488L6.453 103.488L6.453 100.293L6.408 100.293C5.826 100.293 5.367 100.431 5.031 100.707C4.689 100.983 4.518 101.376 4.518 101.886ZM9 96.687C9 96.981 8.85 97.128 8.55 97.128L4.635 97.128L4.635 98.874L4.356 98.874L4.356 97.425C4.356 97.221 4.257 97.119 4.059 97.119L2.718 97.119L2.718 96.813L4.356 96.813L4.356 94.5L4.635 94.5L4.635 96.813L8.721 96.813L8.721 94.5L9 94.5L9 96.687ZM2.34 91.0565L2.34 90.4895L4.644 91.2725L4.644 91.5335L2.34 91.0565ZM9.108 85.5791C9.108 86.0291 9.033 86.4251 8.883 86.7671C8.727 87.1031 8.496 87.3971 8.19 87.6491L8.001 87.4241C8.289 87.1901 8.502 86.9261 8.64 86.6321C8.772 86.3321 8.838 85.9811 8.838 85.5791C8.838 85.1231 8.751 84.7571 8.577 84.4811C8.397 84.1991 8.121 84.0581 7.749 84.0581C7.587 84.0581 7.452 84.0851 7.344 84.1391C7.236 84.1931 7.149 84.2711 7.083 84.3731C7.011 84.4751 6.957 84.5981 6.921 84.7421C6.879 84.8861 6.846 85.0451 6.822 85.2191L6.723 85.9391C6.693 86.1371 6.657 86.3261 6.615 86.5061C6.567 86.6861 6.498 86.8451 6.408 86.9831C6.318 87.1151 6.204 87.2231 6.066 87.3071C5.922 87.3851 5.742 87.4241 5.526 87.4241C5.298 87.4241 5.103 87.3791 4.941 87.2891C4.779 87.1991 4.647 87.0791 4.545 86.9291C4.443 86.7731 4.368 86.5931 4.32 86.3891C4.272 86.1791 4.248 85.9571 4.248 85.7231C4.248 85.5011 4.269 85.3001 4.311 85.1201C4.347 84.9341 4.401 84.7691 4.473 84.6251C4.539 84.4751 4.617 84.3431 4.707 84.2291C4.791 84.1091 4.881 84.0041 4.977 83.9141L5.193 84.1301C5.109 84.2021 5.028 84.2861 4.95 84.3821C4.866 84.4781 4.794 84.5921 4.734 84.7241C4.668 84.8501 4.617 84.9971 4.581 85.1651C4.539 85.3271 4.518 85.5161 4.518 85.7321C4.518 86.1521 4.599 86.4881 4.761 86.7401C4.917 86.9861 5.166 87.1091 5.508 87.1091C5.67 87.1091 5.805 87.0821 5.913 87.0281C6.015 86.9741 6.102 86.8961 6.174 86.7941C6.24 86.6921 6.294 86.5691 6.336 86.4251C6.372 86.2811 6.402 86.1221 6.426 85.9481L6.534 85.2191C6.564 85.0211 6.603 84.8351 6.651 84.6611C6.693 84.4811 6.759 84.3251 6.849 84.1931C6.933 84.0551 7.047 83.9471 7.191 83.8691C7.335 83.7851 7.515 83.7431 7.731 83.7431C7.965 83.7431 8.169 83.7911 8.343 83.8871C8.517 83.9771 8.661 84.1031 8.775 84.2651C8.883 84.4271 8.964 84.6221 9.018 84.8501C9.078 85.0721 9.108 85.3151 9.108 85.5791ZM9 77.0001L4.356 77.0001L4.356 76.7031L4.905 76.7031L4.905 76.6761C4.713 76.6041 4.557 76.4961 4.437 76.3521C4.311 76.2021 4.248 75.9951 4.248 75.7311C4.248 75.4731 4.314 75.2691 4.446 75.1191C4.572 74.9691 4.752 74.8701 4.986 74.8221L4.986 74.8041C4.776 74.7321 4.602 74.6181 4.464 74.4621C4.32 74.3001 4.248 74.0781 4.248 73.7961C4.248 73.4601 4.356 73.2171 4.572 73.0671C4.782 72.9111 5.088 72.8331 5.49 72.8331L9 72.8331L9 73.1301L5.535 73.1301C5.175 73.1301 4.917 73.1931 4.761 73.3191C4.599 73.4391 4.518 73.6251 4.518 73.8771C4.518 74.1231 4.605 74.3331 4.779 74.5071C4.947 74.6811 5.205 74.7681 5.553 74.7681L9 74.7681L9 75.0651L5.535 75.0651C5.175 75.0651 4.917 75.1281 4.761 75.2541C4.599 75.3741 4.518 75.5601 4.518 75.8121C4.518 76.0521 4.605 76.2621 4.779 76.4421C4.947 76.6161 5.205 76.7031 5.553 76.7031L9 76.7031L9 77.0001ZM9.00001 68.0486C9.00001 68.1866 8.96701 68.2856 8.90101 68.3456C8.83501 68.4056 8.74201 68.4386 8.62201 68.4446L8.28901 68.4446L8.28901 68.4806C8.51701 68.5886 8.71201 68.7626 8.87401 69.0026C9.03001 69.2426 9.10801 69.5726 9.10801 69.9926C9.10801 70.4906 8.99401 70.8746 8.76601 71.1446C8.53801 71.4146 8.21401 71.5496 7.79401 71.5496C7.602 71.5496 7.425 71.5196 7.26301 71.4596C7.101 71.3996 6.963 71.2976 6.84901 71.1536C6.72901 71.0096 6.63901 70.8206 6.579 70.5866C6.51301 70.3526 6.48001 70.0646 6.48001 69.7226L6.48001 68.4536L5.81401 68.4536C5.37601 68.4536 5.05201 68.5706 4.84201 68.8046C4.63201 69.0326 4.52701 69.3476 4.52701 69.7496C4.52701 70.0736 4.59601 70.3586 4.734 70.6046C4.866 70.8506 5.076 71.0366 5.364 71.1626L5.211 71.3966C4.923 71.2706 4.692 71.0726 4.518 70.8026C4.33801 70.5266 4.24801 70.1726 4.24801 69.7406C4.24801 69.2366 4.38301 68.8436 4.65301 68.5616C4.91701 68.2796 5.29201 68.1386 5.77801 68.1386L8.72101 68.1386L8.72101 67.4006L9.00001 67.4006L9.00001 68.0486ZM8.83801 69.9656C8.83801 69.7616 8.81401 69.5696 8.76601 69.3896C8.71201 69.2036 8.63701 69.0416 8.54101 68.9036C8.43901 68.7656 8.31601 68.6576 8.17201 68.5796C8.02801 68.4956 7.86001 68.4536 7.66801 68.4536L6.73201 68.4536L6.73201 69.7136C6.73201 70.2476 6.81901 70.6316 6.99301 70.8656C7.16101 71.0936 7.38301 71.2076 7.65901 71.2076L7.92901 71.2076C8.22301 71.2076 8.44801 71.0936 8.60401 70.8656C8.76001 70.6376 8.83801 70.3376 8.83801 69.9656ZM2.34001 65.6491L2.34001 65.3341L6.91201 65.3341L6.91201 65.3071L6.02101 64.2991L4.35601 62.4001L4.35601 61.9951L6.17401 64.0471L9.00001 61.7521L9.00001 62.1391L6.37201 64.2901L7.28101 65.3341L9.00001 65.3341L9.00001 65.6491L2.34001 65.6491ZM9.10801 58.6686C9.10801 59.2926 8.90101 59.7816 8.48701 60.1356C8.07301 60.4836 7.47001 60.6576 6.67801 60.6576C5.88601 60.6576 5.28301 60.4836 4.86901 60.1356C4.45501 59.7876 4.24801 59.3136 4.24801 58.7136C4.24801 58.4016 4.30501 58.1256 4.41901 57.8856C4.52701 57.6456 4.68301 57.4446 4.88701 57.2826C5.09101 57.1206 5.33701 56.9976 5.62501 56.9136C5.91301 56.8296 6.23101 56.7876 6.57901 56.7876L6.70501 56.7876L6.70501 60.3156L6.93901 60.3156C7.52101 60.3156 7.98301 60.1746 8.32501 59.8926C8.66101 59.6046 8.82901 59.1966 8.82901 58.6686C8.82901 58.2966 8.74201 57.9816 8.56801 57.7236C8.39401 57.4656 8.13301 57.2676 7.78501 57.1296L7.92001 56.8776C8.28001 57.0156 8.56801 57.2376 8.78401 57.5436C9.00001 57.8436 9.10801 58.2186 9.10801 58.6686ZM4.51801 58.7136C4.51801 59.2236 4.68901 59.6196 5.03101 59.9016C5.37301 60.1776 5.83501 60.3156 6.41701 60.3156L6.45301 60.3156L6.45301 57.1206L6.40801 57.1206C5.82601 57.1206 5.36701 57.2586 5.03101 57.5346C4.68901 57.8106 4.51801 58.2036 4.51801 58.7136ZM9.10801 47.8037C9.10801 48.2537 9.03301 48.6497 8.88301 48.9917C8.72701 49.3277 8.49601 49.6217 8.19001 49.8737L8.00101 49.6487C8.28901 49.4147 8.50201 49.1507 8.64001 48.8567C8.77201 48.5567 8.83801 48.2057 8.83801 47.8037C8.83801 47.3477 8.75101 46.9817 8.57701 46.7057C8.39701 46.4237 8.12101 46.2827 7.74901 46.2827C7.58701 46.2827 7.45201 46.3097 7.34401 46.3637C7.23601 46.4177 7.14901 46.4957 7.08301 46.5977C7.01101 46.6997 6.95701 46.8227 6.92101 46.9667C6.87901 47.1107 6.84601 47.2697 6.82201 47.4437L6.72301 48.1637C6.69301 48.3617 6.65701 48.5507 6.61501 48.7307C6.56701 48.9107 6.49801 49.0697 6.40801 49.2077C6.31801 49.3397 6.20401 49.4477 6.06601 49.5317C5.92201 49.6097 5.74201 49.6487 5.52601 49.6487C5.29801 49.6487 5.10301 49.6037 4.94101 49.5137C4.77901 49.4237 4.64701 49.3037 4.54501 49.1537C4.44301 48.9977 4.36801 48.8177 4.32001 48.6137C4.27201 48.4037 4.24801 48.1817 4.24801 47.9477C4.24801 47.7257 4.26901 47.5247 4.31101 47.3447C4.34701 47.1587 4.40101 46.9937 4.47301 46.8497C4.53901 46.6997 4.61701 46.5677 4.70701 46.4537C4.79101 46.3337 4.88101 46.2287 4.97701 46.1387L5.19301 46.3547C5.10901 46.4267 5.02801 46.5107 4.95001 46.6067C4.86601 46.7027 4.79401 46.8167 4.73401 46.9487C4.66801 47.0747 4.61701 47.2217 4.58101 47.3897C4.53901 47.5517 4.51801 47.7407 4.51801 47.9567C4.51801 48.3767 4.59901 48.7127 4.76101 48.9647C4.91701 49.2107 5.16601 49.3337 5.50801 49.3337C5.67001 49.3337 5.80501 49.3067 5.91301 49.2527C6.01501 49.1987 6.10201 49.1207 6.17401 49.0187C6.24001 48.9167 6.29401 48.7937 6.33601 48.6497C6.37201 48.5057 6.40201 48.3467 6.42601 48.1727L6.53401 47.4437C6.56401 47.2457 6.60301 47.0597 6.65101 46.8857C6.69301 46.7057 6.75901 46.5497 6.84901 46.4177C6.93301 46.2797 7.04701 46.1717 7.19101 46.0937C7.33501 46.0097 7.51501 45.9677 7.73101 45.9677C7.96501 45.9677 8.16901 46.0157 8.34301 46.1117C8.51701 46.2017 8.66101 46.3277 8.77501 46.4897C8.88301 46.6517 8.96401 46.8467 9.01801 47.0747C9.07801 47.2967 9.10801 47.5397 9.10801 47.8037ZM9.10801 42.5422C9.10801 43.1542 8.90101 43.6312 8.48701 43.9732C8.07301 44.3152 7.47001 44.4862 6.67801 44.4862C5.88601 44.4862 5.28301 44.3152 4.86901 43.9732C4.45501 43.6312 4.24801 43.1542 4.24801 42.5422C4.24801 41.9302 4.45501 41.4532 4.86901 41.1112C5.28301 40.7692 5.88601 40.5982 6.67801 40.5982C7.47001 40.5982 8.07301 40.7692 8.48701 41.1112C8.90101 41.4532 9.10801 41.9302 9.10801 42.5422ZM8.82901 42.5422C8.82901 42.0322 8.66101 41.6392 8.32501 41.3632C7.98901 41.0812 7.52101 40.9402 6.92101 40.9402L6.43501 40.9402C5.83501 40.9402 5.36701 41.0812 5.03101 41.3632C4.69501 41.6392 4.52701 42.0322 4.52701 42.5422C4.52701 43.0522 4.69501 43.4482 5.03101 43.7302C5.36701 44.0062 5.83501 44.1442 6.43501 44.1442L6.92101 44.1442C7.52101 44.1442 7.98901 44.0062 8.32501 43.7302C8.66101 43.4482 8.82901 43.0522 8.82901 42.5422ZM9.00001 39.2247L4.35601 39.2247L4.35601 38.9277L4.90501 38.9277L4.90501 38.9007C4.71301 38.8287 4.55701 38.7207 4.43701 38.5767C4.31101 38.4267 4.24801 38.2197 4.24801 37.9557C4.24801 37.6977 4.31401 37.4937 4.44601 37.3437C4.57201 37.1937 4.75201 37.0947 4.98601 37.0467L4.98601 37.0287C4.77601 36.9567 4.60201 36.8427 4.46401 36.6867C4.32001 36.5247 4.24801 36.3027 4.24801 36.0207C4.24801 35.6847 4.35601 35.4417 4.57201 35.2917C4.78201 35.1357 5.08801 35.0577 5.49001 35.0577L9.00001 35.0577L9.00001 35.3547L5.53501 35.3547C5.17501 35.3547 4.91701 35.4177 4.76101 35.5437C4.59901 35.6637 4.51801 35.8497 4.51801 36.1017C4.51801 36.3477 4.60501 36.5577 4.77901 36.7317C4.94701 36.9057 5.20501 36.9927 5.55301 36.9927L9.00001 36.9927L9.00001 37.2897L5.53501 37.2897C5.17501 37.2897 4.91701 37.3527 4.76101 37.4787C4.59901 37.5987 4.51801 37.7847 4.51801 38.0367C4.51801 38.2767 4.60501 38.4867 4.77901 38.6667C4.94701 38.8407 5.20501 38.9277 5.55301 38.9277L9.00001 38.9277L9.00001 39.2247ZM9.10801 31.6862C9.10801 32.3102 8.90101 32.7992 8.48701 33.1532C8.07301 33.5012 7.47001 33.6752 6.67801 33.6752C5.88601 33.6752 5.28301 33.5012 4.86901 33.1532C4.45501 32.8052 4.24801 32.3312 4.24801 31.7312C4.24801 31.4192 4.30501 31.1432 4.41901 30.9032C4.52701 30.6632 4.68301 30.4622 4.88701 30.3002C5.09101 30.1382 5.33701 30.0152 5.62501 29.9312C5.91301 29.8472 6.23101 29.8052 6.57901 29.8052L6.70501 29.8052L6.70501 33.3332L6.93901 33.3332C7.52101 33.3332 7.98301 33.1922 8.32501 32.9102C8.66101 32.6222 8.82901 32.2142 8.82901 31.6862C8.82901 31.3142 8.74201 30.9992 8.56801 30.7412C8.39401 30.4832 8.13301 30.2852 7.78501 30.1472L7.92001 29.8952C8.28001 30.0332 8.56801 30.2552 8.78401 30.5612C9.00001 30.8612 9.10801 31.2362 9.10801 31.6862ZM4.51801 31.7312C4.51801 32.2412 4.68901 32.6372 5.03101 32.9192C5.37301 33.1952 5.83501 33.3332 6.41701 33.3332L6.45301 33.3332L6.45301 30.1382L6.40801 30.1382C5.82601 30.1382 5.36701 30.2762 5.03101 30.5522C4.68901 30.8282 4.51801 31.2212 4.51801 31.7312ZM9.00001 26.5327C9.00001 26.8267 8.85001 26.9737 8.55001 26.9737L4.63501 26.9737L4.63501 28.7197L4.35601 28.7197L4.35601 27.2707C4.35601 27.0667 4.25701 26.9647 4.05901 26.9647L2.71801 26.9647L2.71801 26.6587L4.35601 26.6587L4.35601 24.3457L4.63501 24.3457L4.63501 26.6587L8.72101 26.6587L8.72101 24.3457L9.00001 24.3457L9.00001 26.5327ZM2.34001 22.5763L2.34001 22.2613L5.04001 22.2613L5.04001 22.2343C4.93801 22.1923 4.83901 22.1353 4.74301 22.0633C4.64701 21.9853 4.56301 21.8893 4.49101 21.7753C4.41901 21.6613 4.36201 21.5263 4.32001 21.3703C4.27201 21.2143 4.24801 21.0343 4.24801 20.8303C4.24801 20.3203 4.39801 19.9303 4.69801 19.6603C4.99201 19.3903 5.42101 19.2553 5.98501 19.2553L9.00001 19.2553L9.00001 19.5703L6.03901 19.5703C5.51101 19.5703 5.12701 19.6843 4.88701 19.9123C4.64701 20.1403 4.52701 20.4703 4.52701 20.9023C4.52701 21.0763 4.55101 21.2473 4.59901 21.4153C4.64701 21.5773 4.71901 21.7213 4.81501 21.8473C4.91101 21.9733 5.03101 22.0753 5.17501 22.1533C5.31901 22.2253 5.48701 22.2613 5.67901 22.2613L9.00001 22.2613L9.00001 22.5763L2.34001 22.5763ZM2.90701 15.2718C2.90701 15.3918 2.88301 15.4788 2.83501 15.5328C2.78101 15.5808 2.71501 15.6048 2.63701 15.6048L2.55601 15.6048C2.47801 15.6048 2.41501 15.5808 2.36701 15.5328C2.31301 15.4788 2.28601 15.3918 2.28601 15.2718C2.28601 15.1518 2.31301 15.0678 2.36701 15.0198C2.41501 14.9658 2.47801 14.9388 2.55601 14.9388L2.63701 14.9388C2.71501 14.9388 2.78101 14.9658 2.83501 15.0198C2.88301 15.0678 2.90701 15.1518 2.90701 15.2718ZM8.72101 17.2338L8.72101 15.4248L4.63501 15.4248L4.63501 17.2338L4.35601 17.2338L4.35601 15.1098L8.72101 15.1098L8.72101 13.4178L9.00001 13.4178L9.00001 17.2338L8.72101 17.2338ZM9.00001 11.7833L4.35601 11.7833L4.35601 11.4683L5.04001 11.4683L5.04001 11.4413C4.93801 11.3993 4.83901 11.3423 4.74301 11.2703C4.64701 11.1923 4.56301 11.0963 4.49101 10.9823C4.41901 10.8683 4.36201 10.7333 4.32001 10.5773C4.27201 10.4213 4.24801 10.2413 4.24801 10.0373C4.24801 9.52728 4.39801 9.13728 4.69801 8.86728C4.99201 8.59728 5.42101 8.46228 5.98501 8.46228L9.00001 8.46228L9.00001 8.77728L6.03901 8.77728C5.51101 8.77728 5.12701 8.89128 4.88701 9.11928C4.64701 9.34728 4.52701 9.67728 4.52701 10.1093C4.52701 10.2833 4.55101 10.4543 4.59901 10.6223C4.64701 10.7843 4.71901 10.9283 4.81501 11.0543C4.91101 11.1803 5.03101 11.2823 5.17501 11.3603C5.31901 11.4323 5.48701 11.4683 5.67901 11.4683L9.00001 11.4683L9.00001 11.7833ZM9.55801 2.5438C10.026 2.5438 10.368 2.7328 10.584 3.1108C10.8 3.4888 10.908 4.0318 10.908 4.7398C10.908 5.4358 10.8 5.9368 10.584 6.2428C10.374 6.5488 10.092 6.7018 9.73801 6.7018C9.46801 6.7018 9.24601 6.6268 9.07201 6.4768C8.90401 6.3208 8.77801 6.1048 8.69401 5.8288L8.64901 5.8288C8.54701 6.1408 8.34301 6.2968 8.03701 6.2968C7.81501 6.2968 7.64101 6.2188 7.51501 6.0628C7.38901 5.9068 7.29601 5.7238 7.23601 5.5138L7.20901 5.5138C7.08901 5.7778 6.91201 5.9848 6.67801 6.1348C6.43801 6.2788 6.14701 6.3508 5.80501 6.3508C5.57101 6.3508 5.35801 6.3148 5.16601 6.2428C4.97401 6.1648 4.81201 6.0568 4.68001 5.9188C4.54201 5.7808 4.43701 5.6128 4.36501 5.4148C4.28701 5.2108 4.24801 4.9858 4.24801 4.7398C4.24801 4.3558 4.34101 4.0288 4.52701 3.7588L4.23001 3.7588C4.00801 3.7588 3.89701 3.6478 3.89701 3.4258L3.89701 2.4628L4.17601 2.4628L4.17601 3.5428L4.69801 3.5428C4.83601 3.4048 4.99801 3.2998 5.18401 3.2278C5.37001 3.1558 5.57701 3.1198 5.80501 3.1198C6.03901 3.1198 6.25501 3.1588 6.45301 3.2368C6.64501 3.3148 6.81001 3.4258 6.94801 3.5698C7.08001 3.7138 7.18501 3.8848 7.26301 4.0828C7.33501 4.2808 7.37101 4.4998 7.37101 4.7398C7.37101 4.9018 7.35301 5.0638 7.31701 5.2258C7.37701 5.4658 7.46101 5.6578 7.56901 5.8018C7.67701 5.9398 7.81801 6.0088 7.99201 6.0088C8.11801 6.0088 8.22601 5.9548 8.31601 5.8468C8.40601 5.7328 8.45101 5.5288 8.45101 5.2348L8.45101 4.0648C8.45101 3.5308 8.55301 3.1438 8.75701 2.9038C8.95501 2.6638 9.22201 2.5438 9.55801 2.5438ZM9.57601 2.8498C9.31801 2.8498 9.11701 2.9428 8.97301 3.1288C8.82301 3.3088 8.74801 3.6268 8.74801 4.0828L8.74801 5.5228C8.82001 5.7808 8.93101 5.9878 9.08101 6.1438C9.23701 6.2998 9.44401 6.3778 9.70201 6.3778C9.99001 6.3778 10.218 6.2578 10.386 6.0178C10.554 5.7718 10.638 5.4328 10.638 5.0008L10.638 4.4968C10.638 3.9988 10.551 3.5998 10.377 3.2998C10.209 2.9998 9.94201 2.8498 9.57601 2.8498ZM7.11001 4.7398C7.11001 4.3258 7.00201 4.0108 6.78601 3.7948C6.57001 3.5728 6.29701 3.4618 5.96701 3.4618L5.64301 3.4618C5.31901 3.4618 5.04901 3.5728 4.83301 3.7948C4.61701 4.0108 4.50901 4.3258 4.50901 4.7398C4.50901 5.1538 4.61701 5.4688 4.83301 5.6848C5.04901 5.9008 5.31901 6.0088 5.64301 6.0088L5.96701 6.0088C6.29701 6.0088 6.57001 5.9008 6.78601 5.6848C7.00201 5.4628 7.11001 5.1478 7.11001 4.7398Z" fill="#2400FF"/>
</svg>
