<svg width="17" height="17" viewBox="0 0 17 17" fill="none" xmlns="http://www.w3.org/2000/svg">
<path d="M16.9843 2.24993C16.9843 6.42646 16.9843 10.603 16.9843 14.7791C16.9731 14.8206 16.9589 14.8621 16.9515 14.9045C16.7992 15.747 16.3447 16.3712 15.5756 16.7431C15.3229 16.8655 15.0357 16.9162 14.7642 17C10.5885 17 6.41322 17 2.23751 17C2.21178 16.9905 2.18688 16.9768 2.16031 16.9726C0.882408 16.7576 0.0195419 15.7623 0.0182968 14.4807C0.0145614 10.5034 0.0141464 6.5269 0.0224472 2.55C0.0228622 2.27317 0.0685165 1.98472 0.155675 1.72241C0.505968 0.672362 1.43607 0.0298816 2.5712 0.0294665C6.32067 0.0282214 10.0705 0.0290515 13.82 0.0290515C14.074 0.0290515 14.3288 0.0182605 14.582 0.0336169C15.5545 0.0917224 16.2804 0.550755 16.7191 1.42151C16.8473 1.67717 16.8979 1.97268 16.9843 2.24993ZM7.01752 13.4742C7.68282 13.4742 8.33609 13.4742 8.99767 13.4742C8.99767 12.5844 8.99767 11.7066 8.99767 10.8288C8.99767 10.3922 8.99061 9.95595 8.99974 9.51975C9.0151 8.80422 9.67584 8.34477 10.3378 8.58134C10.7408 8.72495 10.9849 9.0989 10.9853 9.58159C10.9865 10.8188 10.9857 12.0565 10.9857 13.2937C10.9857 13.353 10.9857 13.412 10.9857 13.4759C11.656 13.4759 12.3093 13.4759 12.96 13.4759C12.9663 13.4556 12.9721 13.4452 12.9721 13.4352C12.9713 11.9602 13.0061 10.4843 12.9592 9.01091C12.9086 7.41882 11.3377 6.0247 9.55008 6.70454C9.37245 6.77219 9.19149 6.83071 8.9902 6.90127C8.9902 6.76098 8.9902 6.64809 8.9902 6.53396C8.32489 6.53396 7.67535 6.53396 7.01752 6.53396C7.01752 8.84821 7.01752 11.1554 7.01752 13.4742ZM4.03795 6.53354C4.03795 8.8561 4.03795 11.1662 4.03795 13.4734C4.70243 13.4734 5.3557 13.4734 6.0069 13.4734C6.0069 11.1542 6.0069 8.8478 6.0069 6.53354C5.34906 6.53354 4.69994 6.53354 4.03795 6.53354ZM4.03421 5.5196C4.70035 5.5196 5.35362 5.5196 6.00192 5.5196C6.00192 4.85471 6.00192 4.20144 6.00192 3.55149C5.33951 3.55149 4.69039 3.55149 4.03421 3.55149C4.03421 4.20932 4.03421 4.85845 4.03421 5.5196Z" fill="black"/>
</svg>
