<svg width="17" height="17" viewBox="0 0 17 17" fill="none" xmlns="http://www.w3.org/2000/svg">
<path d="M5.75836 10.2302C5.75836 12.022 5.75836 13.8134 5.75836 15.6051C5.75836 15.6489 5.75874 15.6923 5.75836 15.736C5.75604 16.1256 5.58159 16.2336 5.22999 16.0578C3.8665 15.3751 2.50418 14.6909 1.14109 14.0074C0.960065 13.9164 0.779815 13.8234 0.597243 13.7359C0.345048 13.6151 0.224365 13.4199 0.224365 13.1369C0.226299 9.48051 0.225912 5.82454 0.225912 2.16857C0.225912 2.13953 0.225139 2.11049 0.226686 2.08144C0.237517 1.89363 0.35085 1.81889 0.520656 1.90176C1.00609 2.13914 1.48844 2.38272 1.97194 2.62475C3.17993 3.23001 4.38714 3.83759 5.59667 4.43937C5.71813 4.49978 5.76145 4.5749 5.76107 4.70967C5.7572 6.54985 5.75836 8.39003 5.75836 10.2302Z" fill="black"/>
<path d="M11.5824 13.066C11.4598 12.8697 11.3442 12.6881 11.2316 12.5041C10.7972 11.7958 10.364 11.0868 9.93001 10.3778C9.50608 9.68537 9.08253 8.99336 8.6582 8.30136C8.45591 7.97181 8.25515 7.64149 8.04705 7.31582C7.98517 7.2194 7.97859 7.14815 8.04241 7.04475C8.70191 5.98138 9.35522 4.91414 10.0105 3.84805C10.4 3.21414 10.7887 2.57983 11.1782 1.94591C11.2769 1.78559 11.3411 1.76507 11.5117 1.85104C12.6322 2.4137 13.7516 2.97792 14.8722 3.54058C15.4284 3.81979 15.9858 4.09589 16.5424 4.37393C16.5854 4.39562 16.6267 4.42079 16.6701 4.44131C16.7935 4.49979 16.7954 4.58653 16.7316 4.6907C16.5378 5.00824 16.3455 5.32655 16.1506 5.64332C15.8036 6.20714 15.4543 6.76903 15.1078 7.33286C14.6448 8.08605 14.1837 8.8404 13.7218 9.59436C13.0302 10.7228 12.3386 11.8516 11.6466 12.98C11.6323 13.004 11.6138 13.0246 11.5824 13.066Z" fill="black"/>
<path d="M11.7488 13.7576C13.438 11.0039 15.1182 8.26418 16.7989 5.52443C16.8093 5.52637 16.8202 5.52791 16.8306 5.52985C16.8333 5.57981 16.8383 5.62976 16.8383 5.67971C16.8387 9.02434 16.8387 12.369 16.8383 15.7136C16.8383 15.762 16.8383 15.8108 16.8329 15.8584C16.8059 16.0842 16.638 16.1965 16.4307 16.1059C16.1483 15.9827 15.8733 15.8414 15.5967 15.7039C15.1608 15.4867 14.7264 15.2663 14.2916 15.0471C13.4693 14.6328 12.6466 14.2184 11.8246 13.8037C11.8037 13.7936 11.7844 13.7797 11.7488 13.7576Z" fill="black"/>
<path d="M11.2161 13.5059C10.9237 13.3591 10.6317 13.2124 10.3393 13.0664C9.34672 12.5699 8.35418 12.0747 7.36203 11.5774C7.02126 11.4067 6.68165 11.2343 6.34513 11.055C6.30142 11.0318 6.25423 10.9644 6.25384 10.9172C6.2492 9.09637 6.24998 7.27555 6.25036 5.45512C6.25036 5.43305 6.25616 5.41059 6.26467 5.34785C7.93953 8.07831 9.59427 10.7762 11.249 13.4738C11.2386 13.4846 11.2274 13.4955 11.2161 13.5059Z" fill="black"/>
</svg>
