<svg width="17" height="17" viewBox="0 0 17 17" fill="none" xmlns="http://www.w3.org/2000/svg">
<path d="M1.30918 13.6722C1.79033 13.9134 2.27128 14.1547 2.75218 14.396C3.62921 14.836 4.50604 15.276 5.38349 15.7153C5.38358 15.6946 5.38352 15.6745 5.38345 15.653C5.38341 15.6379 5.38336 15.6222 5.38336 15.6051V15.5947V15.5842V15.5737V15.5632V15.5527V15.5422V15.5317V15.5212V15.5107V15.5002V15.4897V15.4792V15.4687V15.4582V15.4477V15.4372V15.4267V15.4162V15.4057V15.3952V15.3847V15.3742V15.3637V15.3532V15.3427V15.3322V15.3217V15.3112V15.3007V15.2902V15.2797V15.2692V15.2587V15.2482V15.2377V15.2272V15.2167V15.2062V15.1957V15.1852V15.1747V15.1642V15.1537V15.1432V15.1327V15.1222V15.1117V15.1012V15.0907V15.0802V15.0697V15.0592V15.0487V15.0382V15.0277V15.0172V15.0067V14.9962V14.9857V14.9752V14.9647V14.9542V14.9437V14.9332V14.9228V14.9123V14.9018V14.8913V14.8808V14.8703V14.8598V14.8493V14.8388V14.8283V14.8178V14.8073V14.7968V14.7863V14.7758V14.7653V14.7548V14.7443V14.7338V14.7233V14.7128V14.7023V14.6918V14.6813V14.6708V14.6603V14.6498V14.6393V14.6288V14.6183V14.6078V14.5973V14.5868V14.5763V14.5658V14.5553V14.5448V14.5343V14.5238V14.5133V14.5028V14.4923V14.4818V14.4713V14.4608V14.4503V14.4398V14.4293V14.4188V14.4083V14.3978V14.3874V14.3769V14.3664V14.3559V14.3454V14.3349V14.3244V14.3139V14.3034V14.2929V14.2824V14.2719V14.2614V14.2509V14.2404V14.2299V14.2194V14.2089V14.1984V14.1879V14.1774V14.1669V14.1564V14.1459V14.1354V14.1249V14.1144V14.1039V14.0934V14.0829V14.0724V14.0619V14.0514V14.0409V14.0304V14.0199V14.0094V13.9989V13.9884V13.9779V13.9674V13.9569V13.9464V13.9359V13.9254V13.915V13.9045V13.894V13.8835V13.873V13.8625V13.852V13.8415V13.831V13.8205V13.81V13.7995V13.789V13.7785V13.768V13.7575V13.747V13.7365V13.726V13.7155V13.705V13.6945V13.684V13.6735V13.663V13.6525V13.642V13.6315V13.621V13.6105V13.6V13.5895V13.579V13.5685V13.558V13.5475V13.537V13.5265V13.516V13.5055V13.495V13.4845V13.474V13.4636V13.4531V13.4426V13.4321V13.4216V13.4111V13.4006V13.3901V13.3796V13.3691V13.3586V13.3481V13.3376V13.3271V13.3166V13.3061V13.2956V13.2851V13.2746V13.2641V13.2536V13.2431V13.2326V13.2221V13.2116V13.2011V13.1906V13.1801V13.1696V13.1591V13.1486V13.1381V13.1276V13.1171V13.1066V13.0961V13.0856V13.0751V13.0646V13.0541V13.0436V13.0332V13.0227V13.0122V13.0017V12.9912V12.9807V12.9702V12.9597V12.9492V12.9387V12.9282V12.9177V12.9072V12.8967V12.8862V12.8757V12.8652V12.8547V12.8442V12.8337V12.8232V12.8127V12.8022V12.7917V12.7812V12.7707V12.7602V12.7497V12.7392V12.7287V12.7182V12.7077V12.6972V12.6867V12.6762V12.6657V12.6552V12.6447V12.6342V12.6237V12.6132V12.6028V12.5923V12.5818V12.5713V12.5608V12.5503V12.5398V12.5293V12.5188V12.5083V12.4978V12.4873V12.4768V12.4663V12.4558V12.4453V12.4348V12.4243V12.4138V12.4033V12.3928V12.3823V12.3718V12.3613V12.3508V12.3403V12.3298V12.3193V12.3088V12.2983V12.2878V12.2773V12.2668V12.2563V12.2458V12.2353V12.2248V12.2143V12.2038V12.1933V12.1828V12.1723V12.1619V12.1514V12.1409V12.1304V12.1199V12.1094V12.0989V12.0884V12.0779V12.0674V12.0569V12.0464V12.0359V12.0254V12.0149V12.0044V11.9939V11.9834V11.9729V11.9624V11.9519V11.9414V11.9309V11.9204V11.9099V11.8994V11.8889V11.8784V11.8679V11.8574V11.8469V11.8364V11.8259V11.8154V11.8049V11.7944V11.7839V11.7734V11.7629V11.7524V11.7419V11.7314V11.7209V11.7105V11.7V11.6895V11.679V11.6685V11.658V11.6475V11.637V11.6265V11.616V11.6055V11.595V11.5845V11.574V11.5635V11.553V11.5425V11.532V11.5215V11.511V11.5005V11.49V11.4795V11.469V11.4585V11.448V11.4375V11.427V11.4165V11.406V11.3955V11.385V11.3745V11.364V11.3535V11.343V11.3325V11.322V11.3115V11.301V11.2905V11.28V11.2695V11.259V11.2485V11.238V11.2275V11.217V11.2066V11.1961V11.1856V11.1751V11.1646V11.1541V11.1436V11.1331V11.1226V11.1121V11.1016V11.0911V11.0806V11.0701V11.0596V11.0491V11.0386V11.0281V11.0176V11.0071V10.9966V10.9861V10.9756V10.9651V10.9546V10.9441V10.9336V10.9231V10.9126V10.9021V10.8916V10.8811V10.8706V10.8601V10.8496V10.8391V10.8286V10.8181V10.8076V10.7971V10.7866V10.7761V10.7656V10.7551V10.7446V10.7341V10.7236V10.7131V10.7026V10.6921V10.6816V10.6711V10.6606V10.6501V10.6397V10.6292V10.6187V10.6082V10.5977V10.5872V10.5767V10.5662V10.5557V10.5452V10.5347V10.5242V10.5137V10.5032V10.4927V10.4822V10.4717V10.4612V10.4507V10.4402V10.4297V10.4192V10.4087V10.3982V10.3877V10.3772V10.3667V10.3562V10.3457V10.3352V10.3247V10.3142V10.3037V10.2932V10.2827V10.2722V10.2617V10.2512V10.2407V10.2302C5.38336 9.88537 5.38332 9.54049 5.38328 9.19559C5.3831 7.71516 5.38293 6.23425 5.38597 4.75339C4.52907 4.32693 3.67307 3.8975 2.81775 3.4684C2.47976 3.29884 2.14188 3.12933 1.80408 2.96008C1.69921 2.90758 1.59459 2.85511 1.49013 2.80272C1.19312 2.65377 0.897422 2.50547 0.600913 2.35905C0.600914 2.81782 0.600921 3.27658 0.600928 3.73536C0.600976 6.86899 0.601023 10.0028 0.599365 13.1369L1.30918 13.6722ZM1.30918 13.6722C1.26404 13.6495 1.21822 13.6263 1.17189 13.6028C1.03722 13.5347 0.898244 13.4644 0.759341 13.3978L0.759263 13.3977C0.684407 13.3619 0.651649 13.3265 0.634741 13.2993C0.617531 13.2716 0.599376 13.2243 0.599365 13.1369L1.30918 13.6722ZM0.226686 2.08144L0.42714 2.093L0.390185 2.16857L0.356204 2.23807C0.353031 2.23716 0.351347 2.23651 0.351342 2.23653C0.351338 2.23654 0.352896 2.23717 0.356187 2.23877L0.356492 2.23815L0.42774 2.09215L0.520656 1.90176M0.226686 2.08144L0.427559 2.09214L0.520656 1.90176M0.226686 2.08144C0.237517 1.89363 0.35085 1.81889 0.520656 1.90176M0.226686 2.08144C0.225526 2.10323 0.225671 2.12501 0.225816 2.14679C0.225864 2.15405 0.225912 2.16131 0.225912 2.16857C0.225912 2.69085 0.22592 3.21314 0.225928 3.73542C0.225976 6.86911 0.226023 10.0028 0.224365 13.1369C0.224365 13.4199 0.345048 13.6151 0.597243 13.7359C0.732173 13.8006 0.865835 13.8682 0.999478 13.9359L0.520656 1.90176M0.601619 2.09626C0.601796 2.09474 0.601934 2.09404 0.601959 2.09407L0.601619 2.09626Z" stroke="#2400FF" stroke-width="0.75" stroke-linejoin="round"/>
<path d="M11.5851 12.3631C11.5739 12.3449 11.5627 12.3267 11.5515 12.3084L11.5513 12.3081C11.2565 11.8275 10.9624 11.3466 10.668 10.8655C10.5287 10.6377 10.3894 10.4099 10.2499 10.182L10.2498 10.1819C10.1813 10.07 10.1128 9.95808 10.0442 9.84615C9.68893 9.26581 9.33368 8.68557 8.97789 8.10533L8.97779 8.10517C8.94463 8.05116 8.91142 7.99696 8.87812 7.94262C8.72213 7.68809 8.56434 7.43062 8.40244 7.17573C8.89274 6.38474 9.37982 5.5915 9.86643 4.79904C10.021 4.54739 10.1754 4.29582 10.3299 4.04442L10.33 4.04437C10.5247 3.7274 10.7193 3.41033 10.9138 3.09338L10.914 3.09312L10.914 3.09311C11.0895 2.807 11.2651 2.52097 11.4407 2.23504C11.9684 2.50005 12.4958 2.7654 13.0234 3.03081L13.0235 3.03084C13.5834 3.31254 14.1435 3.59431 14.7039 3.87571L14.704 3.87573C15.0452 4.04703 15.3878 4.21758 15.7297 4.38781C15.9211 4.48311 16.1123 4.57832 16.3029 4.67349C16.2698 4.72794 16.2367 4.78229 16.2037 4.83657C16.0797 5.04056 15.9563 5.24352 15.8312 5.44677L15.8312 5.44678C15.6687 5.71093 15.5034 5.97815 15.338 6.24575C15.1539 6.54342 14.9696 6.84156 14.7883 7.13648C14.4531 7.6817 14.1189 8.22767 13.7849 8.77331C13.6573 8.98174 13.5297 9.19013 13.4021 9.39841L11.5851 12.3631ZM11.5851 12.3631C12.0004 11.6856 12.4157 11.008 12.8309 10.3304C13.0213 10.0198 13.2117 9.70912 13.4021 9.39848L11.5851 12.3631ZM8.36077 7.24219C8.35979 7.2445 8.35917 7.2457 8.35918 7.2457C8.35918 7.2457 8.35986 7.24441 8.36151 7.24173L8.36108 7.24145L8.36077 7.24219ZM8.36077 7.24219L8.26004 7.17973L8.25956 7.17943L8.04241 7.04475L8.36077 7.24219ZM16.4128 4.49316C16.4141 4.49033 16.415 4.48884 16.4151 4.48881C16.4152 4.48877 16.4145 4.49019 16.4128 4.49316Z" stroke="#2400FF" stroke-width="0.75" stroke-linejoin="round"/>
<path d="M16.8306 5.52985C16.8309 5.5347 16.8312 5.53955 16.8315 5.54441L16.8283 5.54245L16.8306 5.52985ZM16.8306 5.52985C16.8254 5.52888 16.8201 5.52801 16.8147 5.52714C16.8094 5.52627 16.8041 5.5254 16.7989 5.52443M16.8306 5.52985L16.8096 5.53099L16.7989 5.52443M16.7989 5.52443C16.7974 5.52689 16.7959 5.52935 16.7944 5.53182L16.7976 5.53164L16.7989 5.52443ZM11.7488 13.7576C12.5456 12.4586 13.3405 11.1627 14.1344 9.8684C14.9114 8.60161 15.6874 7.33638 16.4634 6.07136C16.4634 6.31038 16.4634 6.54941 16.4635 6.78843M11.7488 13.7576C11.7601 13.7646 11.7698 13.7709 11.7784 13.7764C11.7953 13.7872 11.8081 13.7954 11.821 13.8019L11.7488 13.7576ZM11.7488 13.7576L11.9464 13.4389L11.9747 13.4568L11.9923 13.468C11.9932 13.4686 11.9939 13.469 11.9946 13.4694C12.089 13.5171 12.1834 13.5647 12.2778 13.6123M12.2778 13.6123C12.2123 13.7192 12.1467 13.8261 12.0811 13.9331C12.6528 14.2215 13.2249 14.5097 13.7968 14.7978C13.9618 14.8809 14.1267 14.964 14.2916 15.0471C14.4043 15.1039 14.5169 15.1608 14.6296 15.2177C14.9516 15.3803 15.2737 15.543 15.5967 15.7039C15.6452 15.728 15.6936 15.7522 15.742 15.7764C15.9699 15.8903 16.1978 16.0043 16.4307 16.1059C16.638 16.1965 16.8059 16.0842 16.8329 15.8584M12.2778 13.6123C13.0048 12.4272 13.7301 11.2447 14.4546 10.0635C15.1248 8.97092 15.7942 7.87954 16.4635 6.78843M12.2778 13.6123C12.8401 13.8959 13.4027 14.1794 13.9653 14.4628C14.1303 14.546 14.2954 14.6291 14.4604 14.7122L14.4604 14.7123C14.5735 14.7693 14.6864 14.8263 14.7992 14.8832C15.1209 15.0457 15.4417 15.2077 15.7636 15.3681M16.8329 15.8584C16.8383 15.8108 16.8383 15.762 16.8383 15.7136C16.8387 12.5348 16.8387 9.35599 16.8384 6.17719C16.7134 6.38093 16.5884 6.58468 16.4635 6.78843M16.8329 15.8584L16.5535 15.8249L16.5532 15.8249L16.4653 15.8143C16.4713 15.806 16.4817 15.7947 16.4993 15.7836C16.5225 15.769 16.547 15.7629 16.5663 15.7623C16.5724 15.7622 16.577 15.7625 16.5802 15.763C16.5803 15.763 16.5804 15.763 16.5805 15.763C16.5835 15.7634 16.585 15.7639 16.5851 15.7639C16.5851 15.7639 16.5837 15.7635 16.5808 15.7622L16.5806 15.7621C16.5441 15.7462 16.5079 15.73 16.4717 15.7136C16.4716 15.7136 16.4716 15.7136 16.4716 15.7135C16.4688 15.7123 16.4661 15.711 16.4633 15.7098M16.8329 15.8584L16.5527 15.8266L16.5525 15.8265L16.4639 15.8164C16.4594 15.8231 16.458 15.8274 16.4581 15.8274C16.4581 15.8275 16.4593 15.8238 16.4605 15.8148C16.4629 15.7921 16.4633 15.7649 16.4633 15.7136V15.7135C16.4633 15.7123 16.4633 15.711 16.4633 15.7098M16.4635 6.78843C16.4637 9.76222 16.4637 12.736 16.4633 15.7098M16.4633 15.7098C16.2808 15.6265 16.1001 15.5362 15.9126 15.4424C15.8634 15.4179 15.8139 15.3931 15.7636 15.3681M15.7636 15.3681L15.5968 15.7038L15.764 15.3683C15.7639 15.3682 15.7637 15.3682 15.7636 15.3681Z" stroke="#2400FF" stroke-width="0.75" stroke-linejoin="round"/>
<path d="M6.34513 11.055C6.68165 11.2343 7.02126 11.4067 7.36203 11.5774C8.00397 11.8991 8.64607 12.22 9.28823 12.541C9.63856 12.7161 9.98891 12.8912 10.3393 13.0664M6.34513 11.055L11.2398 13.4588L11.2377 13.4629M6.34513 11.055C6.30142 11.0318 6.25423 10.9644 6.25384 10.9172L6.34513 11.055ZM10.3393 13.0664L10.4381 12.8689M10.3393 13.0664L10.4379 12.8687M10.3393 13.0664L10.2856 12.6203M10.4381 12.8689L10.6566 13.2251C10.7946 13.2943 10.9326 13.3636 11.0707 13.4329C11.1156 13.4554 11.1605 13.478 11.2054 13.5005L11.209 13.4983M10.4381 12.8689L10.507 12.731C10.5069 12.731 10.5068 12.7309 10.5068 12.7309L10.4379 12.8687M10.4381 12.8689L10.4379 12.8687M11.209 13.4983L11.2161 13.5059L11.2248 13.4886M11.209 13.4983L10.9605 13.2316C10.9686 13.224 10.9746 13.2181 10.9789 13.2136L11.2377 13.4629M11.209 13.4983L11.2248 13.4886M11.2248 13.4886L11.249 13.4738L11.2377 13.4629M11.2248 13.4886L11.2377 13.4629M10.4379 12.8687L10.2856 12.6203M10.2856 12.6203L6.62511 6.65268C6.6249 8.02885 6.6252 9.40486 6.62851 10.7808C6.92598 10.9378 7.22658 11.0901 7.53004 11.2422L7.53005 11.2422C8.17198 11.5639 8.81387 11.8847 9.45605 12.2056C9.73249 12.3438 10.009 12.482 10.2856 12.6203Z" stroke="#2400FF" stroke-width="0.75" stroke-linejoin="round"/>
</svg>
